<?xml version="1.0" encoding="utf-8"?>
<!-- Generator: Adobe Illustrator 19.1.0, SVG Export Plug-In . SVG Version: 6.00 Build 0)  -->
<svg version="1.1" id="Layer_1" xmlns="http://www.w3.org/2000/svg" xmlns:xlink="http://www.w3.org/1999/xlink" x="0px" y="0px"
	 viewBox="-101 137.6 296.2 227.4" style="enable-background:new -101 137.6 296.2 227.4;" xml:space="preserve">
<style type="text/css">
	.st0{fill:#B88B58;}
</style>
<path class="st0" d="M-56.9,168.6l-2.6-8.9c-0.1-0.3-0.4-0.6-0.7-0.6h-13c-0.3,0-0.6,0.2-0.7,0.6l-2.7,8.9c0,0.1,0,0.1,0,0.2v6.4
	c0,0.4,0.3,0.8,0.8,0.8h18.2c0.4,0,0.8-0.3,0.8-0.8v-6.4C-56.9,168.7-56.9,168.6-56.9,168.6z M-72.7,160.7h11.9l2.2,7.6h-3.9
	c-0.2,0-0.4,0.1-0.5,0.3l-1.2,2.6h-5.1l-1.2-2.6c-0.1-0.2-0.3-0.3-0.5-0.3h-3.9L-72.7,160.7z"/>
<path class="st0" d="M-64.4,203.3v-1.2c0-0.7-0.6-1.2-1.2-1.2h-5.2h-2v16.8c0,0.1,0.4,0.2,1,0.2s1-0.1,1-0.2v-9.2h3.8v1.2
	c0,0.7,0.5,1.2,1.2,1.2h5.2v-7.7L-64.4,203.3L-64.4,203.3z"/>
<path class="st0" d="M-58.5,257.9l-5.2-5.2c0.8-1.1,1.2-2.4,1.2-3.7c0-1.7-0.7-3.3-1.9-4.5c-1.2-1.2-2.8-1.9-4.5-1.9
	s-3.3,0.7-4.5,1.9s-1.9,2.8-1.9,4.5s0.7,3.3,1.9,4.5c1.2,1.2,2.8,1.9,4.5,1.9c1.3,0,2.6-0.4,3.7-1.2l5.2,5.2
	c0.2,0.2,0.5,0.3,0.8,0.3s0.5-0.1,0.8-0.3C-58.1,259-58.1,258.3-58.5,257.9z M-71.9,252.1c-0.8-0.8-1.2-1.9-1.2-3s0.4-2.2,1.2-3
	c0.8-0.8,1.9-1.2,3-1.2s2.2,0.4,3,1.2c0.8,0.8,1.2,1.9,1.2,3s-0.4,2.2-1.2,3C-67.5,253.7-70.3,253.7-71.9,252.1z"/>
<path class="st0" d="M-68.3,289.2v-4.5l-8.5,7.8l8.5,7.8v-4.7c0.8,0,9.2-0.8,11.7,5.8C-56.6,301.4-56.6,291.1-68.3,289.2z"/>
<polygon class="st0" points="-75.3,333.3 -71.5,338.6 -57.6,326.4 -55.4,329 -72,343.6 -78.1,335.3 "/>
<g>
	<path class="st0" d="M168.6,286.4v-1V285c0-0.2-0.2-0.3-0.3-0.3h-13.6c-0.2,0-0.3,0.2-0.3,0.3v0.4v1v1.8h14.3v-1.8H168.6z"/>
	<path class="st0" d="M170.3,289.5h-17.8c-0.6,0-1,0.5-1,1v1v1.2v5.9h3.6v2.9h12.7v-2.9h3.5v-5.9v-1.2v-1
		C171.3,289.9,170.8,289.5,170.3,289.5z M166.9,300.6h-11v-6.4h11V300.6z M169.8,292c-0.3,0.3-0.7,0.3-1,0s-0.3-0.7,0-1s0.7-0.3,1,0
		C170.1,291.3,170.1,291.7,169.8,292z"/>
</g>
<path class="st0" d="M171.7,328h-13.2l-0.4-1.1c-0.1-0.2-0.3-0.3-0.5-0.3h-4.8c-0.3,0-0.5,0.2-0.5,0.5v0.9H151
	c-0.3,0-0.5,0.2-0.5,0.5v14.4c0,0.3,0.2,0.5,0.5,0.5h20.7c0.3,0,0.5-0.2,0.5-0.5v-14.3C172.3,328.3,172,328,171.7,328z"/>
<path class="st0" d="M164.9,200.9h-7l-4.9,4.9v7l4.9,4.9h7l4.9-4.9v-7L164.9,200.9z M162.5,203.6l-0.3,7.8h-1.7l-0.3-7.8H162.5z
	 M161.4,215.1c-0.6,0-1.1-0.5-1.1-1.1c0-0.6,0.5-1.1,1.1-1.1s1.1,0.5,1.1,1.1C162.5,214.6,162,215.1,161.4,215.1z"/>
<g>
	<path class="st0" d="M160.5,171.1c0.2,0.2,0.6,0.4,0.9,0.4s0.7-0.1,0.9-0.4l4.1-4.1c0.5-0.5,0.5-1.3,0-1.8s-1.3-0.5-1.8,0l-1.9,1.9
		v-6.8c0-0.7-0.6-1.3-1.3-1.3c-0.7,0-1.3,0.6-1.3,1.3v6.8l-1.9-1.9c-0.5-0.5-1.3-0.5-1.8,0s-0.5,1.3,0,1.8L160.5,171.1z"/>
	<path class="st0" d="M166.6,173.5h-10.4c-0.7,0-1.3,0.6-1.3,1.3s0.6,1.3,1.3,1.3h10.4c0.7,0,1.3-0.6,1.3-1.3
		S167.3,173.5,166.6,173.5z"/>
</g>
<path class="st0" d="M-10.7,201.2l-3.8-0.2c-0.1,0-0.2,0-0.3,0.1l-3.2,3.2c-0.1,0.1-0.1,0.2-0.1,0.3l0.3,3.8c0,0.1,0,0.2,0.1,0.3
	l9,9c0.1,0.1,0.2,0.1,0.3,0.1c0.1,0,0.2,0,0.3-0.1l6.8-6.8c0.2-0.2,0.2-0.4,0-0.6l-9-9C-10.5,201.2-10.6,201.2-10.7,201.2z
	 M-13.4,205.7c-0.4,0.4-1.1,0.4-1.5,0c-0.4-0.4-0.4-1.1,0-1.5c0.4-0.4,1.1-0.4,1.5,0C-13,204.6-13,205.3-13.4,205.7z"/>
<path class="st0" d="M-9.7,242.7c-3.3,0-5.9,2.7-5.9,5.9c0,3.8,5,11.1,5.9,11.1s5.9-7.3,5.9-11.1C-3.8,245.4-6.4,242.7-9.7,242.7z
	 M-9.7,251c-1.3,0-2.4-1.1-2.4-2.4s1.1-2.4,2.4-2.4s2.4,1.1,2.4,2.4C-7.3,250-8.4,251-9.7,251z"/>
<g>
	<path class="st0" d="M-8.2,289.2v-4.5l-8.5,7.7l8.5,7.7v-4.5c0.8,0,9.2-0.8,11.7,5.8C3.5,301.4,3.5,291.1-8.2,289.2z"/>
	<polygon class="st0" points="-14.4,287.5 -14.4,284.7 -22.9,292.4 -14.4,300.1 -14.4,297.3 -19.8,292.4 	"/>
</g>
<polygon class="st0" points="-1.5,329.3 -4,326.8 -9.7,332.5 -15.5,326.8 -18,329.3 -12.2,335 -18,340.8 -15.5,343.3 -9.7,337.5 
	-4,343.3 -1.5,340.8 -7.2,335 "/>
<path class="st0" d="M-0.8,159.1h-17.8c-0.4,0-0.8,0.3-0.8,0.8v15.3c0,0.4,0.3,0.8,0.8,0.8h17.9c0.4,0,0.8-0.3,0.8-0.8v-15.3
	C0,159.5-0.4,159.1-0.8,159.1z M-6.7,171.1l-2.5,2.5c-0.1,0.1-0.3,0.2-0.6,0.2c-0.2,0-0.4-0.1-0.6-0.2l-2.5-2.5
	c-0.3-0.3-0.3-0.8,0-1.1c0.3-0.3,0.8-0.3,1.1,0l1.2,1.2V167c0-0.4,0.4-0.8,0.8-0.8S-9,166.6-9,167v4.2l1.2-1.2
	c0.3-0.3,0.8-0.3,1.1,0C-6.3,170.3-6.3,170.8-6.7,171.1z M-1.5,164.1h-16.4v-3.4h16.3v3.4H-1.5z"/>
<path class="st0" d="M109.6,217.8c-1.3,0-2.8-0.6-3.7-1.5l-8.9-8.9c-1.5-1.5-1.5-3.8,0-5.3s3.8-1.5,5.3,0l5.8,5.8c1,1,1.4,3,0.4,4
	c-0.4,0.4-0.9,0.6-1.5,0.6l0,0c-0.9,0-1.9-0.4-2.5-1l-4.3-4.3c-0.2-0.2-0.2-0.6,0-0.8c0.2-0.2,0.6-0.2,0.8,0l4.3,4.3
	c0.4,0.4,1.1,0.7,1.6,0.7l0,0c0.2,0,0.5,0,0.7-0.2c0.5-0.5,0.2-1.8-0.4-2.3l-5.8-5.8c-1-1-2.6-1-3.6,0s-1,2.6,0,3.6l8.9,8.9
	c0.5,0.5,1.4,0.9,2.2,1.1c0.9,0.1,1.6,0,2-0.4s0.6-1.2,0.4-2c-0.1-0.9-0.6-1.7-1.1-2.2l-0.2-0.2c-0.2-0.2-0.2-0.6,0-0.8
	s0.6-0.2,0.8,0l0.2,0.2c0.7,0.7,1.2,1.8,1.4,2.9c0.2,1.3-0.1,2.4-0.8,3.1C111.3,217.5,110.5,217.8,109.6,217.8z"/>
<g>
	<path class="st0" d="M104.4,175.9c1.1,0,2-0.7,2.3-1.7H102C102.3,175.2,103.3,175.9,104.4,175.9z"/>
	<path class="st0" d="M110.8,172c-0.7-0.1-1.7-0.5-1.7-2.1v-4.8c0-2.3-1.6-4.2-3.8-4.7v-0.7c0-0.5-0.4-0.7-1-0.7c-0.5,0-1,0.2-1,0.7
		v0.7c-2.2,0.4-3.8,2.4-3.8,4.7v4.8c0,1.6-1,2-1.7,2.1c-0.3,0-0.5,0.3-0.5,0.6s0.3,0.6,0.6,0.6h6.4h6.4c0.3,0,0.6-0.3,0.6-0.6
		S111.1,172.1,110.8,172z"/>
</g>
<path class="st0" d="M112.2,253.6l-1.7-1c0.1-0.4,0.1-0.9,0.1-1.3c0-0.5-0.1-0.9-0.1-1.3l1.7-1c0.2-0.1,0.3-0.4,0.2-0.6l-1.5-2.6
	c-0.1-0.2-0.4-0.2-0.6-0.1l-1.7,0.9c-0.7-0.6-1.4-1.1-2.3-1.3l-0.1-2c0-0.2-0.2-0.4-0.4-0.4h-2.9c-0.2,0-0.4,0.2-0.4,0.4l-0.1,2
	c-0.9,0.3-1.7,0.7-2.3,1.3l-1.7-0.9c-0.2-0.1-0.5-0.1-0.6,0.1l-1.5,2.6c-0.1,0.2,0,0.4,0.2,0.6l1.7,1c-0.1,0.4-0.1,0.9-0.1,1.3
	c0,0.5,0.1,0.9,0.1,1.3l-1.7,1c-0.2,0.1-0.3,0.4-0.2,0.6l1.5,2.6c0.1,0.2,0.4,0.2,0.6,0.1l1.7-0.9c0.7,0.6,1.4,1.1,2.3,1.3l0.1,2
	c0,0.2,0.2,0.4,0.4,0.4h2.9c0.2,0,0.4-0.2,0.4-0.4l0.1-2c0.9-0.3,1.7-0.7,2.3-1.3l1.7,0.9c0.2,0.1,0.5,0.1,0.6-0.1l1.5-2.6
	C112.5,254,112.4,253.7,112.2,253.6z M104.4,254c-1.5,0-2.8-1.2-2.8-2.8c0-1.5,1.2-2.8,2.8-2.8c1.5,0,2.8,1.2,2.8,2.8
	C107.1,252.7,105.9,254,104.4,254z"/>
<path class="st0" d="M99.2,301.1c0,0.1,0,0.2,0.1,0.3c0.1,0.1,0.2,0.1,0.3,0.1h9.6c0.2,0,0.4-0.2,0.4-0.4v-12.9H99.2L99.2,301.1z"/>
<path class="st0" d="M109.7,285.3h-4v-0.4c0-0.1-0.1-0.2-0.2-0.2h-2.6c-0.1,0-0.2,0.1-0.2,0.2v0.4H99c-0.4,0-0.8,0.3-0.8,0.8v0.9
	h12.3v-0.9C110.5,285.6,110.2,285.3,109.7,285.3z"/>
<g>
	<path class="st0" d="M112.5,326.6H96.1c-0.3,0-0.5,0.2-0.5,0.5v15.8c0,0.3,0.2,0.5,0.5,0.5h16.4c0.3,0,0.5-0.2,0.5-0.5v-15.8
		C113,326.8,112.8,326.6,112.5,326.6z M96.8,342.3v-11.2h15.1v11.2H96.8z"/>
	<polygon class="st0" points="100.4,334.6 103.2,334.6 103.2,336.1 101.3,336.1 101.3,337.3 103.2,337.3 103.2,338.8 100.4,338.8 
		100.4,339.9 104.4,339.9 104.4,333.5 100.4,333.5 	"/>
	<polygon class="st0" points="106,334.6 107.1,334.6 107.1,339.9 108.3,339.9 108.3,333.5 106,333.5 	"/>
</g>
<path class="st0" d="M56.3,165.5c-0.1-0.3-0.3-0.5-0.6-0.5h-5.9l-1.8-5.6c-0.1-0.3-0.3-0.5-0.6-0.5s-0.5,0.2-0.6,0.5L45,165h-6
	c-0.3,0-0.5,0.2-0.6,0.5c-0.1,0.3,0,0.6,0.2,0.8l4.7,3.4l-1.8,5.6c-0.1,0.3,0,0.6,0.2,0.8c0.2,0.2,0.6,0.2,0.8,0l4.7-3.4l4.7,3.4
	c0.1,0.1,0.3,0.1,0.4,0.1c0.1,0,0.3,0,0.4-0.1c0.2-0.2,0.3-0.5,0.2-0.8l-1.8-5.6l4.7-3.4C56.3,166,56.4,165.7,56.3,165.5z"/>
<g>
	
		<rect x="45.2" y="202.5" transform="matrix(0.7328 0.6805 -0.6805 0.7328 155.2002 24.0963)" class="st0" width="3.5" height="14.4"/>
	<polygon class="st0" points="39.3,217.9 42.4,217.1 39.8,214.8 	"/>
	<path class="st0" d="M55.1,202.6l-1.7-1.6c-0.2-0.2-0.6-0.2-0.8,0l-0.3,0.3l0,0l-0.9,0.9l2.6,2.4l0.9-0.9l0,0l0.3-0.3
		C55.4,203.2,55.4,202.8,55.1,202.6z"/>
</g>
<polygon class="st0" points="55.6,242.9 39,251.2 46,252.5 47.4,259.5 "/>
<polygon class="st0" points="57.4,293.1 48.9,285.3 48.9,290 37.2,290 37.2,296.1 48.9,296.1 48.9,300.8 "/>
<path class="st0" d="M53.8,341.8c0,0-0.2-2.4-0.5-3.9c-0.1-0.6-1.3-1.1-2.8-1.7c-0.5-0.2-1-0.4-1.2-0.6c-0.6-0.4-0.6-0.9-0.6-1.3
	v-0.1c0-0.1,0-0.2,0.2-0.3c0.2-0.2,0.3-0.4,0.5-1c0-0.1,0.1-0.2,0.1-0.3c0,0,0-0.1,0-0.3c0-0.1,0-0.2,0.1-0.3
	c0.2,0.3,0.7-0.8,0.5-1.3c-0.1-0.2-0.2-0.3-0.3-0.3c0-0.1,0.9-2.1-0.3-2.8c0.1-0.4,0.1-0.7,0.1-0.8c0,0,0-0.1-0.1-0.1h-0.1
	c-0.6,0.4-1.2,0.2-1.9,0.1c-0.5-0.1-1-0.2-1.5-0.1c-0.6,0.1-0.8,0.6-1,0.9c-1.1,0.7-0.3,2.7-0.3,2.8c-0.1,0-0.3,0-0.3,0.3
	c-0.1,0.5,0.3,1.6,0.5,1.3c0.1,0.3,0.2,0.9,0.2,1.1c0.1,0.5,0.3,0.7,0.4,0.8c0.1,0.1,0.2,0.2,0.2,0.3v0.1c0,0.4,0,1-0.6,1.3
	c-0.2,0.1-0.7,0.3-1.2,0.6c-1.5,0.6-2.7,1.2-2.8,1.7c-0.3,1.5-0.5,3.9-0.5,3.9l0,0l0,0C41.6,343.9,53,343.9,53.8,341.8L53.8,341.8
	L53.8,341.8z"/>
<path class="st0" d="M161.6,259.6c-4.4,0-8-3.6-8-8s3.6-8,8-8s8,3.6,8,8S166,259.6,161.6,259.6z M161.6,245.3
	c-3.5,0-6.4,2.9-6.4,6.4c0,3.5,2.9,6.4,6.4,6.4s6.4-2.9,6.4-6.4C167.9,248.1,165.1,245.3,161.6,245.3z"/>
<path class="st0" d="M164.6,252.8h-3.1c-0.3,0-0.6-0.3-0.6-0.6v-4.8c0-0.3,0.3-0.6,0.6-0.6s0.6,0.3,0.6,0.6v4.2h2.5
	c0.3,0,0.6,0.3,0.6,0.6S164.9,252.8,164.6,252.8z"/>
</svg>
