<?xml version="1.0" encoding="utf-8"?>
<!-- Generator: Adobe Illustrator 19.1.0, SVG Export Plug-In . SVG Version: 6.00 Build 0)  -->
<svg version="1.1" id="Layer_1" xmlns="http://www.w3.org/2000/svg" xmlns:xlink="http://www.w3.org/1999/xlink" x="0px" y="0px"
	 viewBox="61.5 232.9 300 40" style="enable-background:new 61.5 232.9 300 40;" xml:space="preserve">
<path id="Shape" d="M89.8,264.5h-4.9V253h-2.4v-4h2.4v-2.4c0-3.2,1.4-5.2,5.3-5.2h3.3v4h-2c-1.5,0-1.6,0.6-1.6,1.6v2h3.6l-0.4,4
	h-3.3V264.5L89.8,264.5z"/>
<path id="Shape_1_" d="M157,246.3c0.9-0.6,1.6-1.5,1.9-2.5c-0.8,0.5-1.8,0.9-2.7,1.1c-0.8-0.9-1.9-1.4-3.1-1.4c-2.4,0-4.3,2-4.3,4.5
	c0,0.4,0,0.7,0.1,1c-3.6-0.2-6.8-2-8.9-4.7c-0.4,0.7-0.6,1.5-0.6,2.3c0,1.6,0.8,3,1.9,3.8c-0.7,0-1.4-0.2-2-0.6v0.1
	c0,2.2,1.5,4,3.5,4.5c-0.4,0.1-0.7,0.2-1.1,0.2c-0.3,0-0.5,0-0.8-0.1c0.5,1.8,2.1,3.1,4,3.2c-1.5,1.2-3.3,1.9-5.4,1.9
	c-0.3,0-0.7,0-1-0.1c1.9,1.3,4.2,2,6.6,2c7.9,0,12.3-6.9,12.3-12.9c0-0.2,0-0.4,0-0.6c0.8-0.6,1.6-1.4,2.1-2.4
	C158.7,246,157.9,246.2,157,246.3z"/>
<path id="Shape_2_" d="M204.7,263.4c-2.7,0-4.7-1.7-4.7-3.8c0-2,2.4-3.7,5.1-3.7c0.6,0,1.2,0.1,1.8,0.3c1.5,1,2.5,1.6,2.8,2.8
	c0.1,0.2,0.1,0.5,0.1,0.7C209.9,261.7,208.5,263.4,204.7,263.4 M205.4,251.2c-1.8-0.1-3.6-2.1-3.9-4.5c-0.3-2.4,0.9-4.3,2.7-4.2
	c1.8,0.1,3.6,2,3.9,4.4C208.5,249.3,207.2,251.2,205.4,251.2 M209.2,254.7c-0.6-0.5-1.9-1.6-1.9-2.2c0-0.8,0.2-1.1,1.4-2
	c1.2-0.9,2-2.2,2-3.7c0-1.8-0.8-3.5-2.3-4.1h2.2l1.6-1.2h-7.1c-3.2,0-6.2,2.4-6.2,5.2c0,2.9,2.2,5.2,5.4,5.2c0.2,0,0.4,0,0.7,0
	c-0.2,0.4-0.4,0.9-0.4,1.3c0,0.8,0.4,1.4,1,2c-0.4,0-0.8,0-1.2,0c-3.9,0-6.9,2.5-6.9,5.1c0,2.6,3.3,4.2,7.2,4.2
	c4.5,0,6.9-2.6,6.9-5.1C211.7,257.3,211.1,256.1,209.2,254.7 M219.5,251.4h-2.8v-2.8h-2.2v2.8h-2.8v2.2h2.8v2.8h2.2v-2.8h2.8V251.4"
	/>
<path id="Shape_3_" d="M274.6,241.5h-12.3c-2.1,0-3.9,1.7-3.9,3.9v12.3c0,2.1,1.7,3.9,3.9,3.9h12.3c2.1,0,3.9-1.7,3.9-3.9v-12.3
	C278.5,243.2,276.8,241.5,274.6,241.5L274.6,241.5z M275.7,243.8h0.4v3.4h-3.4v-3.4H275.7L275.7,243.8z M265.6,249.4
	c0.6-0.9,1.7-1.5,2.9-1.5c1.2,0,2.2,0.6,2.9,1.5c0.4,0.6,0.7,1.3,0.7,2.1c0,1.9-1.6,3.5-3.5,3.5s-3.5-1.6-3.5-3.5
	C265,250.7,265.2,250,265.6,249.4L265.6,249.4z M276.6,257.6c0,1.1-0.9,1.9-1.9,1.9h-12.3c-1.1,0-1.9-0.9-1.9-1.9v-8.2h3
	c-0.3,0.6-0.4,1.3-0.4,2.1c0,3,2.5,5.5,5.5,5.5s5.5-2.5,5.5-5.5c0-0.7-0.1-1.4-0.4-2.1h3v8.2H276.6z"/>
<path id="Shape_4_" d="M329.2,259.4c0,0,0.5,0,0.7-0.3c0.2-0.2,0.2-0.6,0.2-0.6s0-2,0.9-2.3c0.9-0.3,2.1,1.9,3.3,2.7
	c0.9,0.6,1.7,0.5,1.7,0.5h3.3c0,0,1.7-0.1,0.9-1.5c-0.1-0.1-0.5-1-2.5-2.8c-2.1-1.9-1.8-1.6,0.7-4.9c1.5-2,2.1-3.2,2-3.8
	c-0.2-0.5-1.3-0.4-1.3-0.4h-3.8c0,0-0.3,0-0.5,0.1c-0.2,0.1-0.3,0.4-0.3,0.4s-0.6,1.6-1.4,2.9c-1.7,2.8-2.3,2.9-2.6,2.8
	c-0.6-0.4-0.5-1.6-0.5-2.5c0-2.7,0.4-3.8-0.8-4.1c-0.4-0.1-0.7-0.2-1.8-0.2c-1.3,0-2.5,0-3.1,0.3c-0.4,0.2-0.8,0.7-0.6,0.7
	c0.2,0,0.8,0.1,1.1,0.5c0.4,0.5,0.4,1.7,0.4,1.7s0.2,3.2-0.5,3.6c-0.5,0.3-1.2-0.3-2.7-2.8c-0.8-1.3-1.3-2.7-1.3-2.7
	s-0.1-0.3-0.3-0.4c-0.2-0.2-0.6-0.2-0.6-0.2h-3.6c0,0-0.5,0-0.7,0.2c-0.2,0.2,0,0.6,0,0.6s2.8,6.4,6,9.7c2.9,3,6.2,2.8,6.2,2.8
	H329.2L329.2,259.4z"/>
</svg>
