<?xml version="1.0" encoding="utf-8"?>
<!-- Generator: Adobe Illustrator 19.1.0, SVG Export Plug-In . SVG Version: 6.00 Build 0)  -->
<svg version="1.1" id="Слой_1" xmlns="http://www.w3.org/2000/svg" xmlns:xlink="http://www.w3.org/1999/xlink" x="0px" y="0px"
	 viewBox="-6 21.2605782 85.8947449 9.7394209" style="enable-background:new -6 21.2605782 85.8947449 9.7394209;"
	 xml:space="preserve">
<style type="text/css">
	.st0{fill:#FFFFFF;}
</style>
<path class="st0" d="M32.8481522,24.0122948c-0.4947052,0-0.9013443,0.0189667-1.3039131-0.0131264
	c-0.1026764-0.0081863-0.2577629-0.1668892-0.2766953-0.2758999c-0.0767403-0.4418869-0.339653-0.6081181-0.7565308-0.6076698
	c-0.8629532,0.000927-1.7259064-0.0008221-2.5888634-0.001112c-0.3878441-0.0001297-0.5986443,0.2069168-0.6997643,0.5699577
	c-0.2610054,0.9370728,0.0916748,1.4188519,1.0510826,1.4194183c0.9571533,0.0005627,1.9144402-0.0093136,2.8714218,0.0036545
	c0.8944359,0.0121193,1.4102936,0.3478737,1.5080948,1.2260628c0.1131401,1.0159912,0.1349258,2.0653381,0.0123177,3.0779133
	c-0.1239929,1.024044-0.7963791,1.5010471-1.8402023,1.5244389c-1.0978279,0.024601-2.1968575,0.0208931-3.2949219,0.002943
	c-1.2825623-0.0209713-1.8593864-0.5787125-2.023735-1.9304466c-0.0297813-0.2449265-0.0042419-0.4965801-0.0042419-0.8206882
	c0.4329643,0,0.8655663-0.0155907,1.2953529,0.0122719c0.0934792,0.0060577,0.2218895,0.1529961,0.2570648,0.2603283
	c0.1480827,0.4518433,0.4327736,0.6464481,0.9138374,0.6326981c0.7839012-0.0224037,1.5689468-0.0017223,2.353466-0.0065765
	c0.6315842-0.0039082,0.847477-0.19561,0.9355812-0.808485c0.1470871-1.0231476-0.1476326-1.3692245-1.1683846-1.3709259
	c-0.8316078-0.0013885-1.663559,0.0126534-2.4947433-0.0066547c-1.1666641-0.0271015-1.7199554-0.4665222-1.8702869-1.6224174
	c-0.0960846-0.7387867-0.0982304-1.5076675-0.0124741-2.2479954c0.1254368-1.082859,0.6836071-1.6205578,1.7952976-1.7002392
	c1.1387291-0.0816212,2.2902565-0.0923328,3.4297409-0.0250416c1.1044426,0.0652218,1.6011353,0.5978718,1.7996864,1.7032852
	C32.7909431,23.3119831,32.8061028,23.6230659,32.8481522,24.0122948z"/>
<path class="st0" d="M41.3385201,21.2720299c1.224762,0,2.429203-0.0047646,3.6335754,0.0021
	c0.5635605,0.0032139,1.1292686,0.0024986,1.6899338,0.0508137c0.7651215,0.0659351,1.270977,0.5088844,1.5153999,1.2225494
	c0.3903313,1.1397133,0.4398155,2.3092003,0.1260986,3.4683151c-0.1104965,0.4082623-0.3890152,0.7710476-0.6156921,1.2018795
	c-0.0087967-0.0081196,0.0362053,0.0509338,0.0955124,0.0853577c0.4842606,0.2810917,0.7725601,0.6981316,0.7890282,1.2560673
	c0.0229568,0.77808,0.0057793,1.5573425,0.0057793,2.3600044c-0.4921227,0-0.9736862,0-1.5325699,0
	c0-0.4990425,0.001606-1.0091362-0.0003471-1.5192223c-0.0036812-0.9626579-0.3411369-1.3209934-1.288578-1.3331909
	c-0.9381485-0.0120792-1.8765831-0.0026398-2.8602371-0.0026398c0,0.9636116,0,1.881897,0,2.8393517
	c-0.5360794,0-1.0282974,0-1.5579033,0C41.3385201,27.7315731,41.3385201,24.5399952,41.3385201,21.2720299z M42.90131,26.1484604
	c1.101429,0,2.1480675,0.0030327,3.1946831-0.0015583c0.3949661-0.0017338,0.7027359-0.209631,0.7367706-0.5876122
	c0.0538406-0.5980682,0.0596581-1.211319-0.0187073-1.8043365c-0.0262108-0.19837-0.3656349-0.4966774-0.5730209-0.5061703
	c-1.1029091-0.0504913-2.2093506-0.023756-3.3397255-0.023756C42.90131,24.2068386,42.90131,25.1522732,42.90131,26.1484604z"/>
<path class="st0" d="M56.171608,30.9169655c-2.1584511,0-4.3011551,0-6.4998283,0
	c-0.0094376-0.1615524-0.0272675-0.3256111-0.027359-0.4896851c-0.0016327-2.8863201,0.0056076-5.7726727-0.0090828-8.6589165
	c-0.0019455-0.3839111,0.0944214-0.5097446,0.4945564-0.5052967c1.8664665,0.0207577,3.733284,0.008812,5.5999794,0.010458
	c0.1376076,0.0001221,0.2752037,0.0152206,0.4443207,0.0252209c0,0.5974979,0,1.1697121,0,1.7924194
	c-1.6504784,0-3.2899055,0-4.9624939,0c0,0.7152729,0,1.3817139,0,2.1107769c1.5930748,0,3.1966667,0,4.8225441,0
	c0,0.5878487,0,1.1135979,0,1.6917801c-1.6102066,0-3.2010384,0-4.8236809,0c0,0.7469273,0,1.4420471,0,2.1895065
	c1.6498108,0,3.2879829,0,4.9610443,0C56.171608,29.7198811,56.171608,30.3050842,56.171608,30.9169655z"/>
<path class="st0" d="M73.5154877,28.4956055c-0.2440643,0.7116432-0.4932938,1.4012718-0.7137756,2.0999718
	c-0.0851974,0.2700005-0.2181244,0.3694839-0.5028992,0.3541393c-0.4527283-0.024395-0.9077301-0.0065136-1.4355774-0.0065136
	c0.2864761-0.8088875,0.5597-1.5792217,0.8321457-2.3498325c0.8181763-2.3141499,1.6422272-4.6262665,2.4461136-6.9453735
	c0.0992355-0.2862873,0.2236252-0.3964729,0.5266647-0.3824463c0.5161819,0.0238934,1.0357666-0.0149727,1.5506287,0.0203991
	c0.1555786,0.0106907,0.3894272,0.1477833,0.436882,0.2807178c1.0828705,3.0332088,2.1451797,6.0737629,3.2087479,9.1138458
	c0.0245056,0.0700359,0.0193939,0.1504345,0.0303268,0.2454243c-0.5962906,0-1.1726761,0-1.7645874,0
	c-0.2439651-0.7155762-0.4759827-1.429533-0.7377396-2.132412c-0.0458679-0.1231594-0.2151337-0.28302-0.3299408-0.2850761
	C75.888443,28.4874687,74.7138824,28.4956055,73.5154877,28.4956055z M76.669014,26.6467152
	c-0.4117889-1.2083549-0.8026505-2.3552742-1.2374802-3.6312008c-0.4534073,1.2786484-0.8623734,2.4319801-1.2876129,3.6312008
	C74.9916077,26.6467152,75.7821732,26.6467152,76.669014,26.6467152z"/>
<path class="st0" d="M21.8337364,30.9176292c-0.0438671,0.0123634-0.0589962,0.0204678-0.0740471,0.0203152
	c-0.5477371-0.0054874-1.2300472,0.1840458-1.6049042-0.0736141c-0.3661251-0.2516594-0.4207211-0.9590969-0.6075268-1.4681206
	c-0.1069736-0.2914906-0.2048969-0.5863037-0.3141689-0.9005489c-1.19034,0-2.365303-0.0081253-3.539753,0.0127239
	c-0.1158752,0.0020561-0.2868862,0.159565-0.3331509,0.2823009c-0.2642479,0.7009983-0.4984531,1.4133244-0.7470856,2.1340389
	c-0.5903282,0-1.1670055,0-1.8012047,0c0.2855606-0.8205338,0.5582867-1.614727,0.8381634-2.4063892
	c0.802721-2.2705956,1.6167641-4.5372543,2.4038124-6.8132553c0.1190319-0.3442211,0.2797146-0.4626122,0.635149-0.4408073
	c0.4999046,0.0306625,1.0039539-0.0083618,1.5043125,0.0183659c0.1356468,0.0072479,0.3454628,0.1152611,0.38447,0.2254448
	c1.0960693,3.0960979,2.1746349,6.1983967,3.2547646,9.3001289C21.8420105,30.8353271,21.8337364,30.8686104,21.8337364,30.9176292z
	 M16.089056,26.6297302c0.8867226,0,1.6853142,0,2.5164242,0c-0.4101448-1.1949272-0.8016472-2.3355446-1.1931515-3.4761639
	c-0.0333138,0.0053673-0.0666275,0.0107346-0.0999432,0.0160999C16.9095116,24.3091545,16.5066395,25.4486427,16.089056,26.6297302z
	"/>
<path class="st0" d="M-2.5645325,30.9432068c-1.1468771-3.227354-2.2770269-6.4076328-3.4354684-9.6675282
	c0.5836015,0,1.1081734-0.0199566,1.6287527,0.0167332c0.1048794,0.0073929,0.2362099,0.2150784,0.2851243,0.3549728
	c0.7899978,2.2593803,1.5682361,4.5228691,2.3505721,6.7849312c0.065043,0.1880703,0.1403637,0.3725815,0.2645292,0.7002468
	c0.12328-0.2668037,0.2008548-0.4043064,0.2524672-0.5509415c0.8050938-2.2873745,1.6143775-4.5733414,2.4010563-6.8670578
	c0.1156449-0.337183,0.265595-0.4790039,0.6281333-0.4495869c0.4031987,0.0327148,0.8111005,0.0074921,1.2867913,0.0074921
	c-0.1220131,0.3715611-0.220212,0.6943073-0.333437,1.011694c-0.9777465,2.7407417-1.9636116,5.4786129-2.9307451,8.2230854
	c-0.1159563,0.3290501-0.2587142,0.4698925-0.6267414,0.4459305C-1.370594,30.9155998-1.9519343,30.9432068-2.5645325,30.9432068z"
	/>
<path class="st0" d="M40.6192513,21.3114624c0,0.6350231,0,1.2291985,0,1.8744183c-0.8825798,0-1.7539215,0-2.6791763,0
	c0,2.5969219,0,5.1438789,0,7.7239017c-0.5301056,0-1.006588,0-1.5398598,0c0-2.5485001,0-5.095089,0-7.6929951
	c-0.9245453,0-1.7946663,0-2.6940765,0c0-0.6560116,0-1.2607059,0-1.905323
	C35.9913139,21.3114624,38.2844772,21.3114624,40.6192513,21.3114624z"/>
<path class="st0" d="M63.9661942,21.3033409c0,0.6456184,0,1.2501602,0,1.8966522c-0.8846817,0-1.7412872,0-2.6530914,0
	c0,2.5873203,0,5.1330528,0,7.7108059c-0.5329819,0-1.0112228,0-1.5375824,0c0-2.5394192,0-5.0850506,0-7.681879
	c-0.9141541,0-1.7829361,0-2.6921196,0c0-0.6647682,0-1.2791996,0-1.9255791
	C59.370224,21.3033409,61.649086,21.3033409,63.9661942,21.3033409z"/>
<path class="st0" d="M68.7121201,23.1873474c0,2.6182671,0,5.1535454,0,7.7222443c-0.5269241,0-1.0170135,0-1.5522766,0
	c0-2.5549374,0-5.08955,0-7.6867638c-0.9084396,0-1.7749176,0-2.6675644,0c0-0.6676102,0-1.2727108,0-1.9145107
	c2.2909622,0,4.5846405,0,6.9039383,0c0,0.6190701,0,1.2241669,0,1.8790302
	C70.5225983,23.1873474,69.6513824,23.1873474,68.7121201,23.1873474z"/>
<path class="st0" d="M6.4722605,21.2924709c2.2960329,0,4.5474329,0,6.833066,0c0,0.6346016,0,1.249054,0,1.9065037
	c-0.8785496,0-1.7351551,0-2.6469288,0c0,2.5874157,0,5.133316,0,7.7115021c-0.5329666,0-1.0114346,0-1.5379887,0
	c0-2.5386314,0-5.0845203,0-7.6835556c-0.8976355,0-1.7500668,0-2.6481485,0
	C6.4722605,22.5618801,6.4722605,21.9487114,6.4722605,21.2924709z"/>
<path class="st0" d="M5.3702898,30.9309006c-0.509491,0-0.9781332,0-1.4862957,0c0-3.1978455,0-6.3856201,0-9.6162033
	c0.4756441,0,0.9645529,0,1.4862957,0C5.3702898,24.5065727,5.3702898,27.6946793,5.3702898,30.9309006z"/>
</svg>
