<?xml version="1.0" standalone="no"?>
<!DOCTYPE svg PUBLIC "-//W3C//DTD SVG 1.1//EN" "http://www.w3.org/Graphics/SVG/1.1/DTD/svg11.dtd">
<svg width="100%" height="100%" viewBox="0 0 50 50" version="1.1" xmlns="http://www.w3.org/2000/svg" xmlns:xlink="http://www.w3.org/1999/xlink" xml:space="preserve" style="fill-rule:evenodd;clip-rule:evenodd;stroke-linejoin:round;stroke-miterlimit:1.41421;">
    <g transform="matrix(1,0,0,1,-396.6,-79.4)">
        <path d="M421.6,83C413.3,83 406.6,89.7 406.6,98C406.6,109.2 421.6,125.8 421.6,125.8C421.6,125.8 436.6,109.2 436.6,98C436.6,89.7 429.9,83 421.6,83ZM421.6,103.3C418.6,103.3 416.3,100.9 416.3,98C416.3,95.1 418.7,92.7 421.6,92.7C424.5,92.7 426.9,95.1 426.9,98C426.9,100.9 424.6,103.3 421.6,103.3Z" style="fill:black;fill-rule:nonzero;"/>
    </g>
</svg>
