<svg id="Layer_1" xmlns="http://www.w3.org/2000/svg" viewBox="-101 137.6 296.2 227.4"><style>.st0{fill:#FFFFFF;}</style><path class="st0" d="M-56.9 168.6l-2.6-8.9c-.1-.3-.4-.6-.7-.6h-13c-.3 0-.6.2-.7.6l-2.7 8.9V175.2c0 .4.3.8.8.8h18.2c.4 0 .8-.3.8-.8v-6.4c-.1-.1-.1-.2-.1-.2zm-15.8-7.9h11.9l2.2 7.6h-3.9c-.2 0-.4.1-.5.3l-1.2 2.6h-5.1l-1.2-2.6c-.1-.2-.3-.3-.5-.3h-3.9l2.2-7.6zM-64.4 203.3v-1.2c0-.7-.6-1.2-1.2-1.2h-7.2v16.8c0 .1.4.2 1 .2s1-.1 1-.2v-9.2h3.8v1.2c0 .7.5 1.2 1.2 1.2h5.2v-7.7l-3.8.1zM-58.5 257.9l-5.2-5.2c.8-1.1 1.2-2.4 1.2-3.7 0-1.7-.7-3.3-1.9-4.5-1.2-1.2-2.8-1.9-4.5-1.9s-3.3.7-4.5 1.9-1.9 2.8-1.9 4.5.7 3.3 1.9 4.5c1.2 1.2 2.8 1.9 4.5 1.9 1.3 0 2.6-.4 3.7-1.2l5.2 5.2c.2.2.5.3.8.3s.5-.1.8-.3c.3-.4.3-1.1-.1-1.5zm-13.4-5.8c-.8-.8-1.2-1.9-1.2-3s.4-2.2 1.2-3c.8-.8 1.9-1.2 3-1.2s2.2.4 3 1.2c.8.8 1.2 1.9 1.2 3s-.4 2.2-1.2 3c-1.6 1.6-4.4 1.6-6 0zM-68.3 289.2v-4.5l-8.5 7.8 8.5 7.8v-4.7c.8 0 9.2-.8 11.7 5.8 0 0 0-10.3-11.7-12.2zM-75.3 333.3l3.8 5.3 13.9-12.2 2.2 2.6-16.6 14.6-6.1-8.3zM168.6 286.4V285c0-.2-.2-.3-.3-.3h-13.6c-.2 0-.3.2-.3.3v3.2h14.3v-1.8h-.1zM170.3 289.5h-17.8c-.6 0-1 .5-1 1V298.6h3.6v2.9h12.7v-2.9h3.5V290.5c0-.6-.5-1-1-1zm-3.4 11.1h-11v-6.4h11v6.4zm2.9-8.6c-.3.3-.7.3-1 0s-.3-.7 0-1 .7-.3 1 0c.3.3.3.7 0 1zM171.7 328h-13.2l-.4-1.1c-.1-.2-.3-.3-.5-.3h-4.8c-.3 0-.5.2-.5.5v.9H151c-.3 0-.5.2-.5.5v14.4c0 .3.2.5.5.5h20.7c.3 0 .5-.2.5-.5v-14.3c.1-.3-.2-.6-.5-.6zM164.9 200.9h-7l-4.9 4.9v7l4.9 4.9h7l4.9-4.9v-7l-4.9-4.9zm-2.4 2.7l-.3 7.8h-1.7l-.3-7.8h2.3zm-1.1 11.5c-.6 0-1.1-.5-1.1-1.1 0-.6.5-1.1 1.1-1.1s1.1.5 1.1 1.1c0 .6-.5 1.1-1.1 1.1zM160.5 171.1c.2.2.6.4.9.4s.7-.1.9-.4l4.1-4.1c.5-.5.5-1.3 0-1.8s-1.3-.5-1.8 0l-1.9 1.9v-6.8c0-.7-.6-1.3-1.3-1.3-.7 0-1.3.6-1.3 1.3v6.8l-1.9-1.9c-.5-.5-1.3-.5-1.8 0s-.5 1.3 0 1.8l4.1 4.1zM166.6 173.5h-10.4c-.7 0-1.3.6-1.3 1.3s.6 1.3 1.3 1.3h10.4c.7 0 1.3-.6 1.3-1.3s-.6-1.3-1.3-1.3zM-10.7 201.2l-3.8-.2c-.1 0-.2 0-.3.1l-3.2 3.2c-.1.1-.1.2-.1.3l.3 3.8c0 .1 0 .2.1.3l9 9c.1.1.2.1.3.1.1 0 .2 0 .3-.1l6.8-6.8c.2-.2.2-.4 0-.6l-9-9c-.2-.1-.3-.1-.4-.1zm-2.7 4.5c-.4.4-1.1.4-1.5 0-.4-.4-.4-1.1 0-1.5.4-.4 1.1-.4 1.5 0 .4.4.4 1.1 0 1.5zM-9.7 242.7c-3.3 0-5.9 2.7-5.9 5.9 0 3.8 5 11.1 5.9 11.1s5.9-7.3 5.9-11.1c0-3.2-2.6-5.9-5.9-5.9zm0 8.3c-1.3 0-2.4-1.1-2.4-2.4s1.1-2.4 2.4-2.4 2.4 1.1 2.4 2.4c0 1.4-1.1 2.4-2.4 2.4zM-8.2 289.2v-4.5l-8.5 7.7 8.5 7.7v-4.5c.8 0 9.2-.8 11.7 5.8 0 0 0-10.3-11.7-12.2z"/><path class="st0" d="M-14.4 287.5v-2.8l-8.5 7.7 8.5 7.7v-2.8l-5.4-4.9zM-1.5 329.3l-2.5-2.5-5.7 5.7-5.8-5.7-2.5 2.5 5.8 5.7-5.8 5.8 2.5 2.5 5.8-5.8 5.7 5.8 2.5-2.5-5.7-5.8zM-.8 159.1h-17.8c-.4 0-.8.3-.8.8v15.3c0 .4.3.8.8.8H-.7c.4 0 .8-.3.8-.8v-15.3c-.1-.4-.5-.8-.9-.8zm-5.9 12l-2.5 2.5c-.1.1-.3.2-.6.2-.2 0-.4-.1-.6-.2l-2.5-2.5c-.3-.3-.3-.8 0-1.1.3-.3.8-.3 1.1 0l1.2 1.2V167c0-.4.4-.8.8-.8s.8.4.8.8v4.2l1.2-1.2c.3-.3.8-.3 1.1 0 .4.3.4.8 0 1.1zm5.2-7h-16.4v-3.4h16.3v3.4h.1zM109.6 217.8c-1.3 0-2.8-.6-3.7-1.5l-8.9-8.9c-1.5-1.5-1.5-3.8 0-5.3s3.8-1.5 5.3 0l5.8 5.8c1 1 1.4 3 .4 4-.4.4-.9.6-1.5.6-.9 0-1.9-.4-2.5-1l-4.3-4.3c-.2-.2-.2-.6 0-.8.2-.2.6-.2.8 0l4.3 4.3c.4.4 1.1.7 1.6.7.2 0 .5 0 .7-.2.5-.5.2-1.8-.4-2.3l-5.8-5.8c-1-1-2.6-1-3.6 0s-1 2.6 0 3.6l8.9 8.9c.5.5 1.4.9 2.2 1.1.9.1 1.6 0 2-.4s.6-1.2.4-2c-.1-.9-.6-1.7-1.1-2.2l-.2-.2c-.2-.2-.2-.6 0-.8s.6-.2.8 0l.2.2c.7.7 1.2 1.8 1.4 2.9.2 1.3-.1 2.4-.8 3.1-.3.2-1.1.5-2 .5zM104.4 175.9c1.1 0 2-.7 2.3-1.7H102c.3 1 1.3 1.7 2.4 1.7zM110.8 172c-.7-.1-1.7-.5-1.7-2.1v-4.8c0-2.3-1.6-4.2-3.8-4.7v-.7c0-.5-.4-.7-1-.7-.5 0-1 .2-1 .7v.7c-2.2.4-3.8 2.4-3.8 4.7v4.8c0 1.6-1 2-1.7 2.1-.3 0-.5.3-.5.6s.3.6.6.6h12.8c.3 0 .6-.3.6-.6s-.2-.5-.5-.6zM112.2 253.6l-1.7-1c.1-.4.1-.9.1-1.3 0-.5-.1-.9-.1-1.3l1.7-1c.2-.1.3-.4.2-.6l-1.5-2.6c-.1-.2-.4-.2-.6-.1l-1.7.9c-.7-.6-1.4-1.1-2.3-1.3l-.1-2c0-.2-.2-.4-.4-.4h-2.9c-.2 0-.4.2-.4.4l-.1 2c-.9.3-1.7.7-2.3 1.3l-1.7-.9c-.2-.1-.5-.1-.6.1l-1.5 2.6c-.1.2 0 .4.2.6l1.7 1c-.1.4-.1.9-.1 1.3 0 .5.1.9.1 1.3l-1.7 1c-.2.1-.3.4-.2.6l1.5 2.6c.1.2.4.2.6.1l1.7-.9c.7.6 1.4 1.1 2.3 1.3l.1 2c0 .2.2.4.4.4h2.9c.2 0 .4-.2.4-.4l.1-2c.9-.3 1.7-.7 2.3-1.3l1.7.9c.2.1.5.1.6-.1l1.5-2.6c.1-.2 0-.5-.2-.6zm-7.8.4c-1.5 0-2.8-1.2-2.8-2.8 0-1.5 1.2-2.8 2.8-2.8 1.5 0 2.8 1.2 2.8 2.8-.1 1.5-1.3 2.8-2.8 2.8zM99.2 301.1c0 .1 0 .2.1.3.1.1.2.1.3.1h9.6c.2 0 .4-.2.4-.4v-12.9H99.2v12.9zM109.7 285.3h-4v-.4c0-.1-.1-.2-.2-.2h-2.6c-.1 0-.2.1-.2.2v.4H99c-.4 0-.8.3-.8.8v.9h12.3v-.9c0-.5-.3-.8-.8-.8zM112.5 326.6H96.1c-.3 0-.5.2-.5.5v15.8c0 .3.2.5.5.5h16.4c.3 0 .5-.2.5-.5v-15.8c0-.3-.2-.5-.5-.5zm-15.7 15.7v-11.2h15.1v11.2H96.8z"/><path class="st0" d="M100.4 334.6h2.8v1.5h-1.9v1.2h1.9v1.5h-2.8v1.1h4v-6.4h-4zM106 334.6h1.1v5.3h1.2v-6.4H106zM56.3 165.5c-.1-.3-.3-.5-.6-.5h-5.9l-1.8-5.6c-.1-.3-.3-.5-.6-.5s-.5.2-.6.5L45 165h-6c-.3 0-.5.2-.6.5-.1.3 0 .6.2.8l4.7 3.4-1.8 5.6c-.1.3 0 .6.2.8.2.2.6.2.8 0l4.7-3.4 4.7 3.4c.1.1.3.1.4.1.1 0 .3 0 .4-.1.2-.2.3-.5.2-.8l-1.8-5.6 4.7-3.4c.5-.3.6-.6.5-.8z"/><g><path class="st0" d="M50.522 203.247l2.564 2.382-9.8 10.55-2.564-2.38zM39.3 217.9l3.1-.8-2.6-2.3zM55.1 202.6l-1.7-1.6c-.2-.2-.6-.2-.8 0l-.3.3-.9.9 2.6 2.4.9-.9.3-.3c.2-.2.2-.6-.1-.8z"/></g><path class="st0" d="M55.6 242.9L39 251.2l7 1.3 1.4 7zM57.4 293.1l-8.5-7.8v4.7H37.2v6.1h11.7v4.7zM53.8 341.8s-.2-2.4-.5-3.9c-.1-.6-1.3-1.1-2.8-1.7-.5-.2-1-.4-1.2-.6-.6-.4-.6-.9-.6-1.3v-.1c0-.1 0-.2.2-.3.2-.2.3-.4.5-1 0-.1.1-.2.1-.3v-.3c0-.1 0-.2.1-.3.2.3.7-.8.5-1.3-.1-.2-.2-.3-.3-.3 0-.1.9-2.1-.3-2.8.1-.4.1-.7.1-.8 0 0 0-.1-.1-.1h-.1c-.6.4-1.2.2-1.9.1-.5-.1-1-.2-1.5-.1-.6.1-.8.6-1 .9-1.1.7-.3 2.7-.3 2.8-.1 0-.3 0-.3.3-.1.5.3 1.6.5 1.3.1.3.2.9.2 1.1.1.5.3.7.4.8.1.1.2.2.2.3v.1c0 .4 0 1-.6 1.3-.2.1-.7.3-1.2.6-1.5.6-2.7 1.2-2.8 1.7-.3 1.5-.5 3.9-.5 3.9 1 2.1 12.4 2.1 13.2 0zM161.6 259.6c-4.4 0-8-3.6-8-8s3.6-8 8-8 8 3.6 8 8-3.6 8-8 8zm0-14.3c-3.5 0-6.4 2.9-6.4 6.4 0 3.5 2.9 6.4 6.4 6.4s6.4-2.9 6.4-6.4c-.1-3.6-2.9-6.4-6.4-6.4z"/><path class="st0" d="M164.6 252.8h-3.1c-.3 0-.6-.3-.6-.6v-4.8c0-.3.3-.6.6-.6s.6.3.6.6v4.2h2.5c.3 0 .6.3.6.6s-.3.6-.6.6z"/></svg>