<svg xmlns="http://www.w3.org/2000/svg" viewBox="61.5 232.9 300 40"><path d="M89.8 264.5h-4.9V253h-2.4v-4h2.4v-2.4c0-3.2 1.4-5.2 5.3-5.2h3.3v4h-2c-1.5 0-1.6.6-1.6 1.6v2h3.6l-.4 4h-3.3v11.5zM157 246.3c.9-.6 1.6-1.5 1.9-2.5-.8.5-1.8.9-2.7 1.1-.8-.9-1.9-1.4-3.1-1.4-2.4 0-4.3 2-4.3 4.5 0 .4 0 .7.1 1-3.6-.2-6.8-2-8.9-4.7-.4.7-.6 1.5-.6 2.3 0 1.6.8 3 1.9 3.8-.7 0-1.4-.2-2-.6v.1c0 2.2 1.5 4 3.5 4.5-.4.1-.7.2-1.1.2-.3 0-.5 0-.8-.1.5 1.8 2.1 3.1 4 3.2-1.5 1.2-3.3 1.9-5.4 1.9-.3 0-.7 0-1-.1 1.9 1.3 4.2 2 6.6 2 7.9 0 12.3-6.9 12.3-12.9v-.6c.8-.6 1.6-1.4 2.1-2.4-.8.4-1.6.6-2.5.7zM204.7 263.4c-2.7 0-4.7-1.7-4.7-3.8 0-2 2.4-3.7 5.1-3.7.6 0 1.2.1 1.8.3 1.5 1 2.5 1.6 2.8 2.8.1.2.1.5.1.7.1 2-1.3 3.7-5.1 3.7m.7-12.2c-1.8-.1-3.6-2.1-3.9-4.5-.3-2.4.9-4.3 2.7-4.2 1.8.1 3.6 2 3.9 4.4.4 2.4-.9 4.3-2.7 4.3m3.8 3.5c-.6-.5-1.9-1.6-1.9-2.2 0-.8.2-1.1 1.4-2 1.2-.9 2-2.2 2-3.7 0-1.8-.8-3.5-2.3-4.1h2.2l1.6-1.2h-7.1c-3.2 0-6.2 2.4-6.2 5.2 0 2.9 2.2 5.2 5.4 5.2h.7c-.2.4-.4.9-.4 1.3 0 .8.4 1.4 1 2h-1.2c-3.9 0-6.9 2.5-6.9 5.1 0 2.6 3.3 4.2 7.2 4.2 4.5 0 6.9-2.6 6.9-5.1.1-2.1-.5-3.3-2.4-4.7m10.3-3.3h-2.8v-2.8h-2.2v2.8h-2.8v2.2h2.8v2.8h2.2v-2.8h2.8v-2.2M274.6 241.5h-12.3c-2.1 0-3.9 1.7-3.9 3.9v12.3c0 2.1 1.7 3.9 3.9 3.9h12.3c2.1 0 3.9-1.7 3.9-3.9v-12.3c0-2.2-1.7-3.9-3.9-3.9zm1.1 2.3h.4v3.4h-3.4v-3.4h3zm-10.1 5.6c.6-.9 1.7-1.5 2.9-1.5s2.2.6 2.9 1.5c.4.6.7 1.3.7 2.1 0 1.9-1.6 3.5-3.5 3.5s-3.5-1.6-3.5-3.5c-.1-.8.1-1.5.5-2.1zm11 8.2c0 1.1-.9 1.9-1.9 1.9h-12.3c-1.1 0-1.9-.9-1.9-1.9v-8.2h3c-.3.6-.4 1.3-.4 2.1 0 3 2.5 5.5 5.5 5.5s5.5-2.5 5.5-5.5c0-.7-.1-1.4-.4-2.1h3v8.2h-.1zM329.2 259.4s.5 0 .7-.3c.2-.2.2-.6.2-.6s0-2 .9-2.3c.9-.3 2.1 1.9 3.3 2.7.9.6 1.7.5 1.7.5h3.3s1.7-.1.9-1.5c-.1-.1-.5-1-2.5-2.8-2.1-1.9-1.8-1.6.7-4.9 1.5-2 2.1-3.2 2-3.8-.2-.5-1.3-.4-1.3-.4h-3.8s-.3 0-.5.1-.3.4-.3.4-.6 1.6-1.4 2.9c-1.7 2.8-2.3 2.9-2.6 2.8-.6-.4-.5-1.6-.5-2.5 0-2.7.4-3.8-.8-4.1-.4-.1-.7-.2-1.8-.2-1.3 0-2.5 0-3.1.3-.4.2-.8.7-.6.7.2 0 .8.1 1.1.5.4.5.4 1.7.4 1.7s.2 3.2-.5 3.6c-.5.3-1.2-.3-2.7-2.8-.8-1.3-1.3-2.7-1.3-2.7s-.1-.3-.3-.4c-.2-.2-.6-.2-.6-.2h-3.6s-.5 0-.7.2c-.2.2 0 .6 0 .6s2.8 6.4 6 9.7c2.9 3 6.2 2.8 6.2 2.8h1.5z"/></svg>