<svg id="Слой_1" xmlns="http://www.w3.org/2000/svg" viewBox="-6 21.2605782 85.8947449 9.7394209"><style>.st0{fill:#FFFFFF;}</style><path class="st0" d="M32.848 24.012c-.495 0-.9.02-1.304-.013-.102-.01-.258-.168-.276-.277-.077-.442-.34-.608-.757-.607-.862 0-1.725 0-2.588-.002-.388 0-.598.207-.7.57-.26.938.092 1.42 1.05 1.42.96 0 1.916-.01 2.873.004.894.012 1.41.347 1.508 1.226.113 1.016.135 2.065.012 3.077-.124 1.026-.796 1.503-1.84 1.526-1.098.025-2.197.02-3.295.003-1.282-.022-1.86-.58-2.024-1.932-.03-.244-.004-.496-.004-.82.433 0 .866-.016 1.296.012.093.006.22.153.257.26.148.452.432.647.913.633.784-.022 1.57-.002 2.354-.007.632-.003.847-.195.936-.808.147-1.023-.148-1.37-1.17-1.37-.83-.002-1.662.012-2.494-.008-1.166-.027-1.72-.466-1.87-1.622-.096-.74-.098-1.508-.012-2.248.125-1.083.683-1.62 1.795-1.7 1.14-.082 2.29-.093 3.43-.025 1.104.065 1.6.598 1.8 1.703.054.304.07.615.11 1.004zM41.34 21.272c1.223 0 2.428-.005 3.632.002.564.003 1.13.003 1.69.05.765.067 1.27.51 1.515 1.223.39 1.14.44 2.31.127 3.47-.11.407-.39.77-.616 1.2-.01-.007.036.052.095.086.485.28.773.698.79 1.256.022.777.005 1.556.005 2.36h-1.532V29.4c-.004-.963-.342-1.32-1.29-1.333-.937-.012-1.876-.003-2.86-.003v2.84H41.34V21.27zm1.56 4.876c1.103 0 2.15.003 3.196 0 .395-.003.703-.21.737-.59.054-.597.06-1.21-.02-1.803-.025-.198-.365-.497-.572-.506-1.102-.052-2.208-.025-3.34-.025v2.923zM56.172 30.917h-6.5c-.01-.162-.027-.326-.028-.49 0-2.886.006-5.772-.01-8.66 0-.383.096-.508.496-.504 1.866.02 3.733.01 5.6.01.137 0 .275.016.444.026v1.79h-4.962v2.112h4.822v1.692H51.21v2.19h4.962v1.833zM73.515 28.496c-.244.71-.493 1.4-.713 2.1-.085.27-.218.37-.503.354-.454-.025-.91-.007-1.437-.007l.832-2.35c.82-2.314 1.643-4.626 2.446-6.945.1-.286.225-.396.528-.382.516.023 1.036-.015 1.55.02.156.01.39.148.438.28 1.083 3.034 2.145 6.074 3.208 9.115.025.07.02.15.03.246H78.13c-.244-.716-.476-1.43-.738-2.132-.045-.124-.215-.283-.33-.286-1.174-.02-2.348-.012-3.547-.012zm3.154-1.85l-1.238-3.63-1.288 3.63h2.525zM21.834 30.918c-.044.012-.06.02-.074.02-.548-.006-1.23.184-1.605-.074-.366-.25-.42-.96-.608-1.468-.107-.29-.205-.586-.314-.9-1.19 0-2.365-.008-3.54.012-.116.002-.287.16-.333.283-.264.702-.498 1.414-.747 2.135h-1.8c.284-.82.557-1.615.837-2.407.803-2.27 1.617-4.537 2.404-6.813.12-.344.28-.463.635-.44.5.03 1.003-.01 1.503.018.136.007.346.115.385.225 1.096 3.096 2.174 6.198 3.255 9.3.01.027 0 .06 0 .11zM16.09 26.63h2.515c-.41-1.195-.8-2.336-1.193-3.476l-.1.016-1.223 3.46zM-2.565 30.943L-6 21.276c.584 0 1.108-.02 1.63.016.104.008.235.215.284.355.79 2.26 1.568 4.523 2.35 6.785.065.188.14.373.265.7.122-.266.2-.404.25-.55.807-2.288 1.616-4.574 2.403-6.867.115-.338.265-.48.628-.45.404.033.812.007 1.287.007-.122.372-.22.695-.333 1.012-.978 2.74-1.964 5.48-2.93 8.223-.117.33-.26.47-.627.446-.578-.037-1.16-.01-1.772-.01zM40.62 21.31v1.876h-2.68v7.724H36.4v-7.693h-2.694V21.31h6.913zM63.966 21.303V23.2h-2.653v7.71h-1.537v-7.68h-2.693v-1.927h6.883zM68.712 23.187v7.723H67.16v-7.687h-2.668v-1.915h6.904v1.88h-2.684zM6.472 21.292h6.833V23.2h-2.647v7.71H9.12v-7.683H6.472v-1.935zM5.37 30.93H3.884v-9.615H5.37v9.616z"/></svg>